<?xml version="1.0" encoding="UTF-8"?>
<svg version="1.1" viewBox="0 0 60 60" xmlns="http://www.w3.org/2000/svg" >
<g data-name="Bot 33">
<path d="m59 14a1 1 0 0 0-1 1v3h-2.14a3.94 3.94 0 0 0-2.4-2.71 3.6 3.6 0 0 0-0.46-0.09v-2.2h3a1 1 0 0 0 0-2h-3a2 2 0 0 0-2 2v2.13a4 4 0 0 0-3 3.87 4 4 0 0 0 0.91 2.52 5.44 5.44 0 0 1-7.91 3.89v-1.41a2 2 0 0 0-1-1.72v-3.28h2a2 2 0 0 0 2-2v-3a2 2 0 0 0-2-2h-2v-2a10 10 0 0 0-20 0v2h-2a2 2 0 0 0-2 2v3a2 2 0 0 0 2 2h2v3.28a2 2 0 0 0-1 1.72v1.29a11.44 11.44 0 0 0-14 10.06 3.93 3.93 0 0 0-0.86 1.65h-2.14a2 2 0 0 0-2 2v3a1 1 0 0 0 2 0v-3h2.14a3.94 3.94 0 0 0 2.4 2.71 3.55 3.55 0 0 0 0.46 0.14v2.15h-3a1 1 0 0 0 0 2h3a2 2 0 0 0 2-2v-2.13a4 4 0 0 0 2.09-6.39 5.44 5.44 0 0 1 7.91-3.84v4.36a2 2 0 0 0 2 2v6a3 3 0 0 0 0.78 2 3 3 0 0 0-0.78 2v3h-1.25a2 2 0 0 0-1.92 1.45l-1.43 5a2 2 0 0 0 1.93 2.55h23.34a2 2 0 0 0 1.92-2.55l-1.43-5a2 2 0 0 0-1.91-1.45h-1.25v-3a3 3 0 0 0-0.78-2 3 3 0 0 0 0.78-2v-6a2 2 0 0 0 2-2v-4.24a11.44 11.44 0 0 0 14-10.06 3.93 3.93 0 0 0 0.9-1.65h2.1a2 2 0 0 0 2-2v-3.05a1 1 0 0 0-1-1zm-8.78 4.09a2 2 0 0 1 1.78-1.09 2 2 0 0 1 0.7 0.15 2 2 0 0 1 0.58 3.36 2 2 0 0 1-0.92 0.46 1.9 1.9 0 0 1-0.75 0 2 2 0 0 1-1-0.49l-0.09-0.06a2 2 0 0 1-0.35-2.32zm-28.22-5.09v-2h16v7h-16zm0 7h16v2h-16zm20-6v3h-2v-3zm-12-12a8 8 0 0 1 7.94 7h-15.88a8 8 0 0 1 7.94-7zm-12 15v-3h2v3zm-8.22 21.91a2 2 0 0 1-1.78 1.09 2 2 0 0 1-0.71-0.15 2 2 0 0 1-0.58-3.36 1.94 1.94 0 0 1 0.9-0.49 2.07 2.07 0 0 1 0.39 0 2.12 2.12 0 0 1 0.4 0 2 2 0 0 1 1 0.49l0.08 0.05a2 2 0 0 1 0.36 2.33zm6.69-9.91a7.49 7.49 0 0 0-7.15 5.22 3.4 3.4 0 0 0-0.53-0.13 3.73 3.73 0 0 0-0.79-0.09 4.08 4.08 0 0 0-0.68 0.06 9.5 9.5 0 0 1 11.68-6.72v2.1a7.44 7.44 0 0 0-2.53-0.44zm14.53 9v6a3 3 0 0 0 0.78 2 3 3 0 0 0-0.78 2v3h-2v-3a3 3 0 0 0-0.78-2 3 3 0 0 0 0.78-2v-6zm-4 0v6a1 1 0 0 1-1 1h-2a1 1 0 0 1-1-1v-6zm-4 10a1 1 0 0 1 1-1h2a1 1 0 0 1 1 1v3h-4zm-3.25 5h9.25v5h-10.67zm21.92 5h-10.67v-5h9.25zm-8.67-7v-3a1 1 0 0 1 1-1h2a1 1 0 0 1 1 1v3zm4-7a1 1 0 0 1-1 1h-2a1 1 0 0 1-1-1v-6h4zm1-8h-17v-12h18v12zm5.51-6a9.51 9.51 0 0 1-2.51-0.29v-2.1a7.49 7.49 0 0 0 9.68-4.78 3.4 3.4 0 0 0 0.53 0.13h0.17a3.9 3.9 0 0 0 0.62 0.04 3.83 3.83 0 0 0 0.46 0h0.22a9.53 9.53 0 0 1-9.15 7z"/>
<path d="m25.55 14.17a0.56 0.56 0 0 0-0.17-0.09 0.61 0.61 0 0 0-0.19-0.06 0.85 0.85 0 0 0-0.39 0 0.63 0.63 0 0 0-0.18 0.06 0.76 0.76 0 0 0-0.18 0.09l-0.15 0.12a1 1 0 0 0-0.29 0.71 1.53 1.53 0 0 0 0 0.2 0.65 0.65 0 0 0 0.06 0.18 0.54 0.54 0 0 0 0.09 0.17l0.12 0.16a1 1 0 0 0 0.73 0.29 1.05 1.05 0 0 0 0.71-0.29l0.12-0.16a0.56 0.56 0 0 0 0.09-0.17 0.62 0.62 0 0 0 0.08-0.18 1.39 1.39 0 0 0 0-0.2 1.05 1.05 0 0 0-0.29-0.71z"/>
<path d="m35.56 14.17a0.76 0.76 0 0 0-0.18-0.09l-0.18-0.08a0.89 0.89 0 0 0-0.4 0 0.63 0.63 0 0 0-0.18 0.06 0.76 0.76 0 0 0-0.18 0.09l-0.15 0.12a1 1 0 0 0 0 1.42l0.15 0.12a0.76 0.76 0 0 0 0.18 0.09l0.18 0.06h0.4l0.18-0.06a0.76 0.76 0 0 0 0.18-0.09l0.15-0.12a1 1 0 0 0 0-1.42z"/>
</g>
</svg>
