<svg width="582" height="206" viewBox="0 0 582 206" fill="none" xmlns="http://www.w3.org/2000/svg">
<rect x="331" y="42" width="251" height="107" fill="#2A4FD3"/>
<rect x="329.929" y="81.9487" width="45.1196" height="49.507" transform="rotate(41.3638 329.929 81.9487)" fill="#2A4FD3"/>
<rect x="330.771" y="34.345" width="45.1196" height="47.4204" transform="rotate(41.3638 330.771 34.345)" fill="#2A4FD3"/>
<rect x="331" y="34" width="251" height="107" fill="#013DB6"/>
<path d="M383.894 70.592C386.262 70.592 388.47 71.104 390.518 72.128C392.566 73.152 394.198 74.576 395.414 76.4C396.63 78.224 397.238 80.288 397.238 82.592V82.928H387.926C387.926 81.296 387.478 80.08 386.582 79.28C385.686 78.48 384.534 78.08 383.126 78.08H382.886C381.542 78.08 380.406 78.544 379.478 79.472C378.55 80.4 378.086 81.536 378.086 82.88V92.144C378.086 93.488 378.55 94.624 379.478 95.552C380.406 96.48 381.542 96.944 382.886 96.944H383.75C385.094 96.944 386.118 96.528 386.822 95.696C387.558 94.832 387.926 93.632 387.926 92.096H382.358V85.568H397.238V97.088C397.238 99.616 397.286 101.28 397.382 102.08L397.574 104H392.198L390.854 100.496C389.83 101.648 388.438 102.608 386.678 103.376C384.95 104.112 383.206 104.48 381.446 104.48H380.966C378.374 104.48 376.022 103.84 373.91 102.56C371.83 101.28 370.198 99.536 369.014 97.328C367.83 95.12 367.238 92.704 367.238 90.08V84.992C367.238 82.336 367.878 79.92 369.158 77.744C370.47 75.536 372.294 73.792 374.63 72.512C376.966 71.232 379.606 70.592 382.55 70.592H383.894ZM433.585 104H423.121L421.153 98.144H410.689L408.769 104H399.073L410.065 71.072H422.593L433.585 104ZM415.825 81.2L412.993 91.184H418.849L416.065 81.2H415.825ZM478.8 104H468.72V82.88H468.528L462.768 104H451.2L445.488 82.88H445.248V104H436.08V71.072H452.592L457.344 88.64H457.536L462.192 71.072H478.8V104ZM500.107 70.688C502.731 70.688 505.131 71.344 507.307 72.656C509.515 73.936 511.259 75.68 512.539 77.888C513.851 80.064 514.507 82.464 514.507 85.088V90.08C514.507 92.704 513.851 95.12 512.539 97.328C511.259 99.504 509.515 101.248 507.307 102.56C505.131 103.84 502.731 104.48 500.107 104.48H497.419C494.795 104.48 492.379 103.84 490.171 102.56C487.995 101.248 486.251 99.504 484.939 97.328C483.659 95.12 483.019 92.704 483.019 90.08V85.088C483.019 82.464 483.659 80.064 484.939 77.888C486.251 75.68 487.995 73.936 490.171 72.656C492.379 71.344 494.795 70.688 497.419 70.688H500.107ZM498.667 78.08C497.323 78.08 496.187 78.544 495.259 79.472C494.331 80.4 493.867 81.536 493.867 82.88V92.144C493.867 93.488 494.331 94.624 495.259 95.552C496.187 96.48 497.323 96.944 498.667 96.944H498.907C500.251 96.944 501.387 96.48 502.315 95.552C503.243 94.624 503.707 93.488 503.707 92.144V82.88C503.707 81.536 503.243 80.4 502.315 79.472C501.387 78.544 500.251 78.08 498.907 78.08H498.667ZM531.873 70.592C535.777 70.592 538.977 71.44 541.473 73.136C544.001 74.832 545.265 77.344 545.265 80.672V81.248H536.049V81.056C536.049 80.128 535.713 79.376 535.041 78.8C534.401 78.192 533.409 77.888 532.065 77.888C530.753 77.888 529.761 78.08 529.089 78.464C528.417 78.816 528.081 79.296 528.081 79.904C528.081 80.64 528.465 81.232 529.233 81.68C530.033 82.096 531.185 82.464 532.689 82.784L536.961 83.744C542.913 85.088 545.889 88.176 545.889 93.008C545.889 96.944 544.593 99.84 542.001 101.696C539.409 103.552 535.825 104.48 531.249 104.48C528.721 104.48 526.385 104.096 524.241 103.328C522.129 102.56 520.417 101.392 519.105 99.824C517.825 98.224 517.185 96.256 517.185 93.92V93.344C517.185 93.088 517.201 92.896 517.233 92.768H526.545C526.513 92.864 526.497 93.056 526.497 93.344C526.497 94.336 526.833 95.152 527.505 95.792C528.209 96.432 529.361 96.752 530.961 96.752C532.721 96.752 533.921 96.576 534.561 96.224C535.201 95.84 535.521 95.328 535.521 94.688C535.521 93.92 535.073 93.344 534.177 92.96C533.281 92.544 531.873 92.128 529.953 91.712C527.521 91.2 525.489 90.64 523.857 90.032C522.257 89.392 520.865 88.368 519.681 86.96C518.497 85.52 517.905 83.552 517.905 81.056C517.905 78.816 518.513 76.912 519.729 75.344C520.977 73.776 522.657 72.592 524.769 71.792C526.881 70.992 529.249 70.592 531.873 70.592Z" fill="white"/>
<rect x="301.297" y="114.528" width="39.5533" height="39.787" transform="rotate(-48.2917 301.297 114.528)" fill="#013DB6"/>
<rect x="304" y="64.8616" width="40" height="40" transform="rotate(-48.2917 304 64.8616)" fill="#013DB6"/>
<rect x="3.29248" y="105.722" width="252.846" height="105.879" transform="rotate(-20.3001 3.29248 105.722)" fill="#2A4FD3"/>
<rect x="240.817" y="101.008" width="44.2295" height="40" transform="rotate(-66.1678 240.817 101.008)" fill="#2A4FD3"/>
<rect x="223" y="54.6887" width="45.843" height="40" transform="rotate(-66.1678 223 54.6887)" fill="#2A4FD3"/>
<rect x="0.0286102" y="97.0206" width="251.037" height="107.272" transform="rotate(-20.3001 0.0286102 97.0206)" fill="#013DB6"/>
<path d="M59.4625 114.562C60.9331 114.018 62.4358 113.838 63.9706 114.021C65.5243 114.162 66.9228 114.669 68.1661 115.539C69.3983 116.38 70.292 117.551 70.8471 119.051C71.2467 120.132 71.3857 121.292 71.2641 122.531C71.1725 123.759 70.8453 124.904 70.2825 125.965C69.7197 127.026 68.9614 127.835 68.0075 128.393L68.0908 128.618C69.9302 128.517 71.516 129.023 72.8481 130.134C74.1992 131.203 75.2411 132.728 75.9738 134.709C76.4956 136.12 77.0803 137.285 77.7278 138.206C78.3643 139.096 79.2277 139.494 80.3181 139.397L81.0008 141.243C79.8312 142.324 78.1359 143.275 75.915 144.097C73.7841 144.885 72.0325 145.038 70.6601 144.556C69.2766 144.045 68.1963 142.738 67.4191 140.637C66.6864 138.657 65.8429 137.16 64.8886 136.149C63.9532 135.096 62.6452 134.88 60.9645 135.502L58.3534 136.468L62.7831 148.443L53.5543 151.857L42.1303 120.974L59.4625 114.562ZM55.8055 129.58L60.5775 127.815C61.2077 127.581 61.6552 127.177 61.92 126.602C62.2036 125.985 62.2289 125.361 61.9958 124.731L61.8292 124.281C61.5961 123.651 61.1767 123.209 60.5711 122.955C59.9844 122.66 59.3759 122.629 58.7456 122.863L53.9737 124.628L55.8055 129.58ZM87.5398 103.767C90.0008 102.856 92.4793 102.639 94.9754 103.115C97.4903 103.549 99.731 104.58 101.698 106.206C103.683 107.792 105.131 109.815 106.041 112.276L107.773 116.958C108.684 119.419 108.906 121.913 108.442 124.439C107.996 126.924 106.966 129.165 105.35 131.161C103.753 133.117 101.725 134.549 99.2635 135.46L96.7424 136.392C94.2814 137.303 91.7935 137.541 89.2785 137.106C86.7825 136.631 84.5418 135.6 82.5563 134.014C80.5898 132.388 79.1513 130.344 78.241 127.883L76.509 123.201C75.5987 120.74 75.3663 118.267 75.8118 115.782C76.2763 113.256 77.3069 111.015 78.9037 109.06C80.5194 107.063 82.5577 105.61 85.0187 104.699L87.5398 103.767ZM88.7538 111.199C87.4933 111.665 86.5888 112.495 86.0404 113.687C85.492 114.879 85.4509 116.106 85.9172 117.366L89.1313 126.055C89.5975 127.315 90.4268 128.22 91.6192 128.768C92.8115 129.317 94.0379 129.358 95.2984 128.892L95.5235 128.808C96.784 128.342 97.6885 127.513 98.2369 126.32C98.7853 125.128 98.8264 123.902 98.3601 122.641L95.146 113.952C94.6798 112.692 93.8505 111.788 92.6581 111.239C91.4658 110.691 90.2394 110.65 88.9789 111.116L88.7538 111.199ZM123.3 117.459L134.51 113.312L138.208 120.542L116.554 128.552L105.13 97.6693L114.674 94.1389L123.3 117.459ZM170.619 108.553L160.805 112.183L156.927 107.374L147.113 111.004L147.344 117.162L138.251 120.526L137.136 85.8299L148.886 81.4835L170.619 108.553ZM146.052 93.3305L146.86 103.677L152.352 101.645L146.277 93.2472L146.052 93.3305ZM199.16 97.995L191.057 100.993L176.837 91.0526L176.585 90.7874L181.648 104.473L172.959 107.687L161.535 76.8043L169.459 73.8734L183.975 84.0619L184.182 84.3437L179.002 70.3429L187.736 67.1122L199.16 97.995ZM206.792 60.0632C209.253 59.1529 211.732 58.9355 214.228 59.411C216.742 59.8455 218.983 60.8761 220.95 62.5029C222.935 64.0886 224.383 66.1119 225.293 68.5729L226.726 72.4445C227.636 74.9055 227.859 77.3991 227.394 79.9251C226.949 82.41 225.918 84.6508 224.303 86.6473C222.706 88.6027 220.677 90.0356 218.216 90.946L204.305 96.0918L192.881 65.209L206.792 60.0632ZM211.201 85.4034L214.668 84.1211C215.928 83.6548 216.833 82.8255 217.381 81.6332C217.93 80.4409 217.971 79.2145 217.504 77.9539L214.657 70.2558C214.19 68.9952 213.361 68.0908 212.169 67.5424C210.976 66.994 209.75 66.9529 208.489 67.4192L205.023 68.7015L211.201 85.4034Z" fill="white"/>
<rect x="236.447" y="94.4246" width="40" height="40" transform="rotate(-66.1678 236.447 94.4246)" fill="#013DB6"/>
<rect x="218.983" y="46.5496" width="40" height="40" transform="rotate(-66.1678 218.983 46.5496)" fill="#013DB6"/>
</svg>
